<mxfile host="app.diagrams.net" agent="Mozilla/5.0 (Windows NT 10.0; Win64; x64) AppleWebKit/537.36 (KHTML, like Gecko) Chrome/138.0.0.0 Safari/537.36 Edg/138.0.0.0" version="28.0.4">
  <diagram id="R2lEEEUBdFMjLlhIrx00" name="Page-1">
    <mxGraphModel dx="1034" dy="668" grid="1" gridSize="10" guides="1" tooltips="1" connect="1" arrows="1" fold="1" page="1" pageScale="1" pageWidth="850" pageHeight="1100" math="0" shadow="0" extFonts="Permanent Marker^https://fonts.googleapis.com/css?family=Permanent+Marker">
      <root>
        <mxCell id="0" />
        <mxCell id="1" parent="0" />
        <mxCell id="9jhaiEioy0Xy451GB6fG-4" style="edgeStyle=orthogonalEdgeStyle;rounded=0;orthogonalLoop=1;jettySize=auto;html=1;exitX=1;exitY=0.5;exitDx=0;exitDy=0;curved=1;entryX=1;entryY=0.5;entryDx=0;entryDy=0;endArrow=ERmany;endFill=0;startArrow=ERone;startFill=0;" parent="1" source="OnU-D66EaQQ06rdmp6Sh-2" target="OnU-D66EaQQ06rdmp6Sh-6" edge="1">
          <mxGeometry relative="1" as="geometry">
            <mxPoint x="590" y="316" as="targetPoint" />
            <Array as="points">
              <mxPoint x="480" y="95" />
              <mxPoint x="480" y="351" />
            </Array>
          </mxGeometry>
        </mxCell>
        <mxCell id="OnU-D66EaQQ06rdmp6Sh-2" value="SHOP" style="rounded=1;whiteSpace=wrap;html=1;fillColor=#dae8fc;strokeColor=#6c8ebf;" parent="1" vertex="1">
          <mxGeometry x="295" y="70" width="60" height="50" as="geometry" />
        </mxCell>
        <mxCell id="9jhaiEioy0Xy451GB6fG-5" style="edgeStyle=orthogonalEdgeStyle;rounded=0;orthogonalLoop=1;jettySize=auto;html=1;curved=1;entryX=0;entryY=0.5;entryDx=0;entryDy=0;endArrow=ERmany;endFill=0;startArrow=ERone;startFill=0;" parent="1" source="OnU-D66EaQQ06rdmp6Sh-6" target="OnU-D66EaQQ06rdmp6Sh-2" edge="1">
          <mxGeometry relative="1" as="geometry">
            <mxPoint x="230" y="96" as="targetPoint" />
            <Array as="points">
              <mxPoint x="150" y="351" />
              <mxPoint x="150" y="95" />
            </Array>
          </mxGeometry>
        </mxCell>
        <mxCell id="9jhaiEioy0Xy451GB6fG-7" style="edgeStyle=orthogonalEdgeStyle;rounded=0;orthogonalLoop=1;jettySize=auto;html=1;exitX=1;exitY=0.75;exitDx=0;exitDy=0;curved=1;entryX=0.333;entryY=1;entryDx=0;entryDy=0;entryPerimeter=0;endArrow=ERmany;endFill=0;startArrow=ERone;startFill=0;" parent="1" source="OnU-D66EaQQ06rdmp6Sh-6" target="OnU-D66EaQQ06rdmp6Sh-6" edge="1">
          <mxGeometry relative="1" as="geometry">
            <mxPoint x="310" y="446" as="targetPoint" />
            <Array as="points">
              <mxPoint x="391" y="364" />
              <mxPoint x="391" y="466" />
              <mxPoint x="310" y="466" />
            </Array>
          </mxGeometry>
        </mxCell>
        <mxCell id="OnU-D66EaQQ06rdmp6Sh-6" value="EMPLO" style="rounded=1;whiteSpace=wrap;html=1;fillColor=#dae8fc;strokeColor=#6c8ebf;" parent="1" vertex="1">
          <mxGeometry x="280" y="326" width="90" height="50" as="geometry" />
        </mxCell>
        <mxCell id="OnU-D66EaQQ06rdmp6Sh-36" value="works_at" style="shape=rhombus;perimeter=rhombusPerimeter;whiteSpace=wrap;html=1;align=center;" parent="1" vertex="1">
          <mxGeometry x="435" y="190" width="80" height="50" as="geometry" />
        </mxCell>
        <mxCell id="OnU-D66EaQQ06rdmp6Sh-61" value="reports_to" style="shape=rhombus;perimeter=rhombusPerimeter;whiteSpace=wrap;html=1;align=center;" parent="1" vertex="1">
          <mxGeometry x="340" y="436" width="80" height="50" as="geometry" />
        </mxCell>
        <mxCell id="OnU-D66EaQQ06rdmp6Sh-63" value="is_manager" style="shape=rhombus;perimeter=rhombusPerimeter;whiteSpace=wrap;html=1;align=center;" parent="1" vertex="1">
          <mxGeometry x="110" y="190" width="80" height="50" as="geometry" />
        </mxCell>
      </root>
    </mxGraphModel>
  </diagram>
</mxfile>
